<?xml version="1.0" standalone="no"?>
<!DOCTYPE svg PUBLIC "-//W3C//DTD SVG 20010904//EN"
 "http://www.w3.org/TR/2001/REC-SVG-20010904/DTD/svg10.dtd">
<svg version="1.0" xmlns="http://www.w3.org/2000/svg"
 width="494.000000pt" height="495.000000pt" viewBox="0 0 494.000000 495.000000"
 preserveAspectRatio="xMidYMid meet">
<metadata>
Created by potrace 1.16, written by Peter Selinger 2001-2019
</metadata>
<g transform="translate(0.000000,495.000000) scale(0.100000,-0.100000)"
fill="#000000" stroke="none">
<path d="M2440 4065 c0 -33 2 -35 35 -35 l35 0 0 -58 0 -59 -40 -12 c-47 -14
-106 -69 -126 -117 -9 -22 -14 -72 -14 -145 0 -111 0 -111 -22 -105 -13 3 -40
6 -60 6 l-38 0 0 113 c0 90 -4 119 -19 147 -22 42 -55 68 -98 76 -32 6 -33 6
-33 -29 0 -29 5 -37 29 -46 41 -18 51 -49 51 -161 l0 -100 -44 0 c-53 0 -104
-31 -129 -80 -23 -45 -20 -184 6 -223 l16 -24 -92 -5 c-146 -9 -191 -31 -319
-156 -145 -141 -145 -140 -5 -278 59 -58 121 -110 148 -122 l46 -22 -16 -34
-16 -33 -65 5 c-56 4 -73 1 -115 -21 -60 -30 -77 -48 -104 -107 -25 -54 -27
-117 -6 -167 15 -36 9 -52 -18 -53 -21 0 -69 -45 -87 -80 -36 -70 -24 -158 28
-213 39 -42 75 -57 132 -57 63 0 122 29 152 74 l22 33 44 -20 c81 -35 174 -2
209 73 12 27 23 38 33 34 37 -14 78 -15 115 -2 32 11 47 11 75 1 50 -17 89
-15 135 6 136 61 151 236 28 321 -18 12 -40 38 -51 58 -12 26 -33 45 -68 62
l-49 25 17 35 c10 19 18 50 18 69 l0 33 55 -50 c75 -69 119 -82 276 -82 154 0
212 17 278 82 70 69 84 107 89 228 4 93 1 111 -18 153 -44 93 -116 132 -232
125 -81 -5 -86 -2 -72 37 9 24 58 45 104 45 39 0 40 1 40 35 l0 35 -51 0 c-88
0 -157 -51 -173 -126 l-7 -32 -64 6 c-83 6 -143 -11 -195 -55 -22 -19 -40 -30
-40 -24 0 6 -16 11 -35 11 -33 0 -35 -2 -35 -35 0 -30 3 -35 23 -35 22 0 23
-1 19 -101 -4 -97 -6 -103 -34 -128 -29 -26 -29 -26 -12 -59 19 -39 14 -95
-12 -123 -20 -23 -34 -24 -34 -5 0 20 -47 74 -79 90 -14 8 -55 17 -91 21 -99
10 -158 42 -257 139 l-88 86 90 88 c134 131 136 132 406 135 210 2 227 3 266
24 60 32 103 104 103 171 0 14 6 30 14 36 12 9 12 20 0 76 -19 89 -19 282 1
319 27 53 71 81 126 81 60 0 100 -19 130 -61 18 -25 23 -51 29 -142 9 -125 29
-197 81 -282 87 -145 274 -254 435 -255 53 0 119 -26 146 -56 57 -65 59 -159
5 -221 -40 -46 -82 -63 -152 -63 -37 0 -55 -4 -55 -12 0 -7 -3 -24 -7 -37 l-6
-23 85 3 c73 4 91 8 134 34 100 62 140 186 94 293 -39 91 -129 152 -222 152
-117 0 -244 54 -331 141 -91 91 -137 209 -137 353 0 33 -5 77 -10 97 -15 52
-72 113 -130 138 l-50 22 0 54 0 55 40 0 c39 0 40 1 40 35 l0 35 -110 0 -110
0 0 -35z m-312 -607 c7 -7 12 -26 12 -44 0 -70 61 -69 70 1 6 44 26 61 64 51
39 -10 60 -64 52 -136 -5 -46 -12 -60 -41 -87 -32 -31 -40 -33 -104 -33 -79 0
-113 12 -136 47 -19 28 -30 110 -21 147 13 54 73 85 104 54z m314 -412 c10 -7
23 -30 30 -52 14 -41 39 -54 63 -34 8 7 15 22 15 34 0 13 11 33 24 45 22 20
33 23 84 19 106 -7 152 -63 152 -185 0 -99 -15 -141 -69 -194 -57 -58 -94 -69
-232 -69 -134 0 -185 16 -237 75 -47 53 -62 101 -62 191 0 83 27 137 80 165
41 22 127 25 152 5z m-487 -458 c39 -34 44 -86 11 -125 -31 -37 -70 -46 -112
-27 -59 28 -71 98 -25 145 37 37 88 39 126 7z m-251 -98 c14 -5 34 -27 45 -48
11 -21 27 -44 35 -51 18 -15 21 -72 6 -100 -5 -11 -26 -21 -48 -24 -23 -4 -50
-19 -70 -38 -29 -29 -34 -30 -66 -19 -42 14 -92 67 -101 109 -25 115 89 213
199 171z m382 -159 c95 -58 52 -201 -60 -201 -80 0 -129 66 -107 141 21 71
102 100 167 60z m234 -66 c13 -41 -6 -95 -42 -119 -31 -20 -84 -31 -92 -18 -8
13 24 93 50 122 12 14 27 35 33 48 15 29 35 16 51 -33z m-488 -76 c26 -14 51
-74 42 -102 -10 -33 -43 -65 -75 -72 -32 -7 -83 16 -99 44 -43 81 50 174 132
130z m-264 -48 c30 -16 42 -43 42 -93 -1 -46 -10 -64 -50 -91 -68 -47 -170 8
-170 91 0 46 29 88 73 107 31 13 63 8 105 -14z"/>
<path d="M2676 2464 c-152 -163 -276 -304 -276 -314 0 -20 86 -102 156 -151
214 -147 513 -171 751 -59 117 54 243 155 243 194 0 13 -74 99 -207 241 -311
332 -363 385 -378 385 -7 0 -137 -133 -289 -296z m488 -3 c108 -116 196 -213
196 -218 0 -4 -26 -27 -58 -50 -198 -146 -491 -134 -664 27 l-49 45 188 202
c103 112 189 203 189 203 1 0 90 -94 198 -209z m-449 -381 c88 -42 171 -60
271 -60 145 1 243 32 358 115 l74 53 27 -28 26 -27 -63 -48 c-253 -192 -593
-192 -845 -1 -35 26 -65 52 -69 57 -3 5 4 22 16 39 l21 29 62 -50 c34 -28 89
-63 122 -79z"/>
<path d="M2140 1975 l0 -35 145 0 145 0 0 35 0 35 -145 0 -145 0 0 -35z"/>
<path d="M463 1533 c2 -10 17 -64 32 -121 30 -109 39 -119 96 -110 20 2 27 14
42 63 11 33 21 67 24 75 3 8 14 -16 25 -55 10 -38 25 -73 31 -77 16 -10 59
-10 74 0 11 7 73 205 73 233 0 6 -16 9 -37 7 -37 -3 -38 -3 -59 -78 -20 -69
-22 -73 -29 -45 -29 124 -26 120 -75 120 l-45 0 -15 -67 c-8 -38 -17 -68 -20
-68 -4 0 -14 32 -24 70 l-18 70 -40 0 c-34 0 -40 -3 -35 -17z"/>
<path d="M894 1537 c-2 -7 -3 -62 -2 -123 l3 -109 35 0 c35 0 35 0 38 48 l3
47 50 0 49 0 0 -45 c0 -50 12 -62 55 -51 l26 7 -3 117 -3 117 -37 3 -37 3 -3
-48 -3 -48 -45 0 -45 0 -3 48 c-3 46 -3 47 -38 47 -19 0 -37 -6 -40 -13z"/>
<path d="M1265 1520 c-8 -16 -33 -70 -54 -120 -31 -71 -37 -92 -26 -96 26 -10
60 1 70 24 8 19 17 22 66 22 50 0 57 -3 67 -25 9 -18 19 -25 41 -25 16 0 32 4
36 9 3 6 -18 62 -46 125 l-52 116 -43 0 c-38 0 -45 -4 -59 -30z"/>
<path d="M1460 1520 c0 -28 2 -30 40 -30 l40 0 0 -89 c0 -88 0 -89 27 -94 49
-9 53 -2 53 94 l0 89 40 0 c38 0 40 2 40 30 l0 30 -120 0 -120 0 0 -30z"/>
<path d="M1846 1529 c-19 -15 -26 -30 -26 -54 0 -42 26 -62 91 -71 54 -7 74
-17 65 -33 -10 -16 -72 -13 -86 4 -7 8 -28 15 -46 15 -27 0 -34 -4 -34 -20 0
-26 34 -56 72 -64 101 -20 178 12 178 73 0 45 -22 58 -143 85 -24 6 -27 9 -17
21 16 19 54 19 70 0 7 -8 28 -15 46 -15 27 0 34 4 34 19 0 36 -46 61 -115 61
-48 0 -68 -5 -89 -21z"/>
<path d="M2074 1535 c-12 -30 4 -45 45 -45 l40 0 3 -92 3 -93 30 0 30 0 3 93
3 92 44 0 c43 0 45 1 45 30 l0 30 -120 0 c-98 0 -122 -3 -126 -15z"/>
<path d="M2350 1431 l0 -119 30 -7 c41 -9 50 0 50 51 l0 44 49 0 50 0 3 -47
c3 -46 4 -48 33 -48 l30 0 3 123 3 122 -35 0 c-35 0 -35 -1 -38 -47 l-3 -48
-47 -3 -47 -3 -3 48 c-3 48 -3 48 -40 51 l-38 3 0 -120z"/>
<path d="M2682 1434 c-28 -64 -49 -121 -46 -125 14 -24 84 3 84 32 0 5 24 9
54 9 46 0 56 -3 70 -25 16 -25 68 -36 80 -16 3 4 -18 61 -46 125 l-52 116 -46
0 -46 0 -52 -116z"/>
<path d="M2920 1520 c0 -28 2 -30 40 -30 l40 0 0 -90 c0 -98 6 -108 55 -96 24
6 25 9 25 96 l0 90 40 0 c38 0 40 2 40 30 l0 30 -120 0 -120 0 0 -30z"/>
<path d="M3197 1543 c-4 -3 -7 -57 -7 -119 0 -113 0 -114 25 -120 40 -10 55 1
55 41 0 20 5 36 13 37 11 1 48 4 90 7 11 1 17 9 17 26 0 24 -3 25 -60 25 -57
0 -60 1 -60 25 0 24 2 25 75 25 l75 0 0 30 0 30 -108 0 c-60 0 -112 -3 -115
-7z"/>
<path d="M3462 1428 l3 -123 30 0 c28 0 30 3 33 43 3 41 4 42 38 42 28 0 38
-6 54 -32 10 -18 24 -39 30 -45 12 -15 66 -17 74 -4 3 4 -8 29 -24 55 -30 46
-30 46 -10 66 27 27 25 62 -6 91 -23 21 -36 24 -125 27 l-100 4 3 -124z"/>
<path d="M3760 1459 c0 -103 8 -125 55 -145 65 -27 161 -9 184 34 6 12 11 61
11 111 l0 91 -35 0 -35 0 0 -76 c0 -94 -10 -114 -55 -114 -45 0 -55 20 -55
114 l0 76 -35 0 -35 0 0 -91z"/>
<path d="M4054 1535 c-9 -23 3 -45 26 -45 19 0 21 -5 18 -62 -3 -57 -5 -63
-25 -66 -17 -3 -23 -10 -23 -28 0 -29 23 -36 105 -32 57 3 60 4 63 30 3 21 -1
27 -20 30 -21 3 -23 9 -26 66 -3 61 -2 62 23 62 21 0 25 5 25 30 l0 30 -80 0
c-62 0 -82 -3 -86 -15z"/>
<path d="M4240 1520 c0 -28 2 -30 40 -30 l40 0 0 -90 c0 -87 1 -90 25 -96 49
-12 55 -2 55 96 l0 90 40 0 c38 0 40 2 40 30 l0 30 -120 0 -120 0 0 -30z"/>
<path d="M1806 949 c-30 -24 -34 -63 -10 -97 20 -28 83 -31 107 -4 24 26 21
77 -5 102 -28 26 -58 26 -92 -1z"/>
<path d="M3002 963 c-19 -8 -43 -60 -35 -80 19 -54 84 -72 123 -33 53 53 -16
142 -88 113z"/>
</g>
</svg>
